<?xml version="1.0" standalone="no"?><!DOCTYPE svg PUBLIC "-//W3C//DTD SVG 1.1//EN" "http://www.w3.org/Graphics/SVG/1.1/DTD/svg11.dtd"><svg t="1697021042913" class="icon" viewBox="0 0 1024 1024" version="1.1" xmlns="http://www.w3.org/2000/svg" p-id="1070" xmlns:xlink="http://www.w3.org/1999/xlink" width="200" height="200"><path d="M341.333333 0H0v341.333333a113.777778 113.777778 0 0 0 113.777778 113.777778h341.333333V113.777778a113.777778 113.777778 0 0 0-113.777778-113.777778zM0 682.666667v341.333333h341.333333a113.777778 113.777778 0 0 0 113.777778-113.777778v-341.333333H113.777778a113.777778 113.777778 0 0 0-113.777778 113.777778zM682.666667 0a113.777778 113.777778 0 0 0-113.777778 113.777778v341.333333h341.333333a113.777778 113.777778 0 0 0 113.777778-113.777778V0zM910.222222 568.888889h-341.333333v341.333333a113.777778 113.777778 0 0 0 113.777778 113.777778h341.333333v-341.333333a113.777778 113.777778 0 0 0-113.777778-113.777778z" p-id="1071"></path></svg>